# xmcd CD database file
#
# Track frame offsets:
#	150
#	17836
#	34828
#	52715
#	71783
#	88284
#	103481
#	121671
#	137901
#	155529
#	173066
#	188498
#	206277
#
# Disc length: 3034 seconds
#
# Revision: 1
# Processed by: cddbd v1.5.2PL0 Copyright (c) Steve Scherf et al.
# Submitted via: CDex 1.51
#
DISCID=ae0bd80d
DTITLE=Tracy Killeen - Back There
DYEAR=2009
DGENRE=Country
TTITLE0=All Kinds Of Beautiful
TTITLE1=Good Friends and Good Times
TTITLE2=Back There
TTITLE3=Never Seen The Rain
TTITLE4=Granville
TTITLE5=A Little Time
TTITLE6=My Dad
TTITLE7=Take You Back
TTITLE8=One More Gone
TTITLE9=Letting Go
TTITLE10=Way Into My Heart
TTITLE11=Almost Feeling Good
TTITLE12=Working Man
EXTD=YEAR: 2009
EXTT0=
EXTT1=
EXTT2=
EXTT3=
EXTT4=
EXTT5=
EXTT6=
EXTT7=
EXTT8=
EXTT9=
EXTT10=
EXTT11=
EXTT12=
PLAYORDER=
